<svg width="22" height="22" viewBox="0 0 22 22" fill="none" xmlns="http://www.w3.org/2000/svg">
<path d="M13.9434 0.250001C12.5759 0.249981 11.4735 0.249961 10.6066 0.366521C9.70645 0.487541 8.94853 0.746431 8.34662 1.34835C7.82168 1.87328 7.55644 2.51836 7.41721 3.27635C7.28192 4.01291 7.25604 4.9143 7.25001 5.99583C7.24771 6.41003 7.58162 6.74768 7.99583 6.74999C8.41004 6.7523 8.74769 6.41838 8.74999 6.00418C8.75608 4.91068 8.78448 4.1356 8.89253 3.54735C8.99664 2.98054 9.16385 2.65246 9.40725 2.40901C9.68405 2.13225 10.0727 1.9518 10.8064 1.85315C11.5618 1.75159 12.5629 1.75 13.9983 1.75H14.9983C16.4337 1.75 17.4348 1.75159 18.1902 1.85315C18.924 1.9518 19.3125 2.13225 19.5893 2.40901C19.8661 2.68577 20.0465 3.07435 20.1452 3.80812C20.2467 4.56347 20.2483 5.56459 20.2483 7V15C20.2483 16.4354 20.2467 17.4365 20.1452 18.1919C20.0465 18.9257 19.8661 19.3142 19.5893 19.591C19.3125 19.8678 18.924 20.0482 18.1902 20.1469C17.4348 20.2484 16.4337 20.25 14.9983 20.25H13.9983C12.5629 20.25 11.5618 20.2484 10.8064 20.1469C10.0727 20.0482 9.68405 19.8678 9.40725 19.591C9.16385 19.3475 8.99664 19.0195 8.89253 18.4527C8.78448 17.8644 8.75608 17.0893 8.74999 15.9958C8.74769 15.5816 8.41004 15.2477 7.99583 15.25C7.58162 15.2523 7.24771 15.59 7.25001 16.0042C7.25604 17.0857 7.28192 17.9871 7.41721 18.7236C7.55644 19.4816 7.82168 20.1267 8.34662 20.6517C8.94853 21.2536 9.70645 21.5125 10.6066 21.6335C11.4735 21.75 12.5759 21.75 13.9434 21.75H15.0532C16.4208 21.75 17.5231 21.75 18.3901 21.6335C19.2902 21.5125 20.048 21.2536 20.65 20.6517C21.2519 20.0497 21.5108 19.2919 21.6318 18.3918C21.7484 17.5248 21.7483 16.4225 21.7483 15.0549V6.94513C21.7483 5.57754 21.7484 4.47522 21.6318 3.60825C21.5108 2.70814 21.2519 1.95027 20.65 1.34835C20.048 0.746431 19.2902 0.487541 18.3901 0.366521C17.5231 0.249961 16.4208 0.249981 15.0532 0.250001H13.9434Z" fill="white"/>
<path d="M1 10.249C0.58578 10.249 0.25 10.5848 0.25 10.999C0.25 11.4132 0.58578 11.749 1 11.749H12.9725L11.0119 13.4296C10.6974 13.6991 10.661 14.1726 10.9305 14.4871C11.2001 14.8016 11.6736 14.838 11.9881 14.5685L15.4881 11.5685C15.6543 11.426 15.75 11.218 15.75 10.999C15.75 10.7801 15.6543 10.5721 15.4881 10.4296L11.9881 7.42959C11.6736 7.16003 11.2001 7.19645 10.9305 7.51094C10.661 7.82544 10.6974 8.29891 11.0119 8.56848L12.9725 10.249H1Z" fill="white"/>
</svg>
